<?xml version="1.0" encoding="utf-8"?>
<!-- Generator: Adobe Illustrator 16.0.3, SVG Export Plug-In . SVG Version: 6.00 Build 0)  -->
<!DOCTYPE svg PUBLIC "-//W3C//DTD SVG 1.1//EN" "http://www.w3.org/Graphics/SVG/1.1/DTD/svg11.dtd">
<svg version="1.1" id="Capa_1" xmlns="http://www.w3.org/2000/svg" xmlns:xlink="http://www.w3.org/1999/xlink" x="0px" y="0px"
	 width="219px" height="191.501px" viewBox="0 0 219 191.501" enable-background="new 0 0 219 191.501" xml:space="preserve">
<g>
	<g id="_x33__13_">
		<g>
			<path fill="#FFFFFF" d="M170.221,87.948l-23.411,15.606c0-4.737-2.154-8.927-5.486-11.791c7.933-4.78,13.29-13.391,13.29-23.325
				c0-15.084-12.229-27.312-27.312-27.312c-15.084,0-27.312,12.228-27.312,27.312c0,7.652,3.164,14.549,8.236,19.509H93.915
				c3.738-4.148,6.075-9.583,6.075-15.607c0-12.931-10.48-23.412-23.411-23.412c-12.93,0-23.41,10.481-23.41,23.412
				c0,7.053,3.188,13.304,8.123,17.596c-4.819,2.657-8.123,7.725-8.123,13.617v31.214c0,8.619,6.988,15.607,15.606,15.607h62.428
				c8.619,0,15.607-6.988,15.607-15.607l23.411,15.607c4.311,0,7.803-3.492,7.803-7.803V95.751
				C178.024,91.44,174.532,87.948,170.221,87.948z M76.58,87.948c-8.619,0-15.606-6.989-15.606-15.607
				c0-8.619,6.988-15.607,15.606-15.607c8.619,0,15.607,6.988,15.607,15.607C92.187,80.959,85.199,87.948,76.58,87.948z
				 M127.302,87.99c-10.8,0-19.552-8.755-19.552-19.551c0-10.8,8.756-19.551,19.552-19.551s19.551,8.751,19.551,19.551
				S138.102,87.99,127.302,87.99z"/>
		</g>
	</g>
</g>
</svg>
