<?xml version="1.0" encoding="utf-8"?>
<!-- Generator: Adobe Illustrator 16.0.3, SVG Export Plug-In . SVG Version: 6.00 Build 0)  -->
<!DOCTYPE svg PUBLIC "-//W3C//DTD SVG 1.1//EN" "http://www.w3.org/Graphics/SVG/1.1/DTD/svg11.dtd">
<svg version="1.1" id="Capa_1" xmlns="http://www.w3.org/2000/svg" xmlns:xlink="http://www.w3.org/1999/xlink" x="0px" y="0px"
	 width="82.521px" height="59.992px" viewBox="129.292 144.312 82.521 59.992"
	 enable-background="new 129.292 144.312 82.521 59.992" xml:space="preserve">
<g>
	<g>
		<path fill="#1C886F" d="M209.015,144.312H132.09c-1.545,0-2.798,1.253-2.798,2.799v54.396c0,1.545,1.253,2.798,2.798,2.798h76.925
			c1.545,0,2.798-1.253,2.798-2.798V147.11C211.813,145.565,210.56,144.312,209.015,144.312z M206.216,198.707h-71.328v-48.799
			h71.328V198.707z"/>
		<path fill="#1C886F" d="M142.22,163.09l26.864,16.552c0.45,0.277,0.959,0.416,1.468,0.416s1.018-0.139,1.468-0.416l26.863-16.552
			c1.315-0.811,1.725-2.535,0.915-3.85c-0.811-1.316-2.535-1.726-3.851-0.915l-25.396,15.647l-25.396-15.647
			c-1.315-0.81-3.039-0.401-3.85,0.915C140.495,160.555,140.905,162.279,142.22,163.09z"/>
	</g>
</g>
</svg>
