<?xml version="1.0" encoding="utf-8"?>
<!-- Generator: Adobe Illustrator 16.0.3, SVG Export Plug-In . SVG Version: 6.00 Build 0)  -->
<!DOCTYPE svg PUBLIC "-//W3C//DTD SVG 1.1//EN" "http://www.w3.org/Graphics/SVG/1.1/DTD/svg11.dtd">
<svg version="1.1" id="Warstwa_1" xmlns="http://www.w3.org/2000/svg" xmlns:xlink="http://www.w3.org/1999/xlink" x="0px" y="0px"
	 width="340px" height="150px" viewBox="0 0 340 150" enable-background="new 0 0 340 150" xml:space="preserve">
<polygon fill="#EDEDED" points="8.997,5.619 284.089,5.619 333.994,77.309 285.002,149 8.997,149 "/>
<polygon fill="#CD4336" points="0,0.5 275.095,0.5 325,72.191 276.008,143.883 0,143.883 "/>
<g>
	<path fill="#FFFFFF" d="M248.395,52.103c-2.461-2.765-6.928-6.077-14.068-6.077c-11.729,0-17.867,9.541-17.867,18.961
		c0,12.336,16.863,31.388,17.593,32.209c0.335,0.395,0.821,0.638,1.338,0.638h0.03c0.517,0,0.973-0.243,1.337-0.607
		c0.183-0.183,4.163-4.497,8.204-10.544c5.53-8.265,8.326-15.588,8.326-21.727C253.287,60.277,251.494,55.598,248.395,52.103z
		 M235.45,93.154c-3.95-4.74-15.314-19.113-15.314-28.198c0-7.353,4.466-15.284,14.221-15.284c9.936,0,15.284,7.87,15.284,15.284
		C249.641,75.653,239.218,88.749,235.45,93.154z"/>
	<g>
		<polygon fill="#FFFFFF" points="238.302,70.692 237.09,71.905 232.196,71.905 230.984,70.692 230.984,60.365 232.196,59.153 
			237.09,59.153 238.302,60.365 238.302,63.464 243.196,63.464 243.196,58.563 239.202,54.568 230.083,54.569 226.09,58.563 
			226.09,72.495 230.083,76.489 239.202,76.489 243.196,72.495 243.196,67.952 238.302,67.952 		"/>
	</g>
</g>
<g>
	<path fill="#FFFFFF" d="M84.532,54.31h20.602v3.469H88.517v14.086h14.414v3.445H88.517v14.859h-3.984V54.31z"/>
	<path fill="#FFFFFF" d="M112.938,54.31h3.961v35.859h-3.961V54.31z"/>
	<path fill="#FFFFFF" d="M128.454,54.31h3.164l16.5,26.063l2.133,4.43l-0.516-4.922V54.31h3.633v35.859h-3.352l-16.383-25.992
		l-2.063-4.031l0.516,4.781v25.242h-3.633V54.31z"/>
	<path fill="#FFFFFF" d="M164.454,90.169V54.521c4.992-0.398,8.695-0.68,12.68-0.68c9.539,0,12.797,2.531,12.797,14.203v3.633
		c0,13.008-2.18,18.492-14.672,18.492H164.454z M168.438,86.817h7.453c8.789,0,9.844-3.82,9.844-15.141v-3.656
		c0-7.102-0.984-10.711-8.086-10.711c-3.328,0-5.883,0.164-9.211,0.398V86.817z"/>
</g>
</svg>
