<svg xmlns="http://www.w3.org/2000/svg" xmlns:xlink="http://www.w3.org/1999/xlink" class="" app-context="doc-2d" x="0px" y="0px" width="200" height="50" jvs-fullPath="_new_1507266599325/Untitled"><title/><desc/><defs/><g id="jvs-guides" transform="matrix(1 0 0 1 0 0)"/><g id="jvs-content" enable-background="new"><g transform="matrix(1,0,0,1,0,0)" name="Layer" jvs-layer-color="#fb0094" class="jvs-layer selected"><g transform="matrix(1 0 0 1 0 0.344564)"><path d="M15.979 36L9.598 36L0.141 10.688L7.260 10.688L14.273 31.061L20.619 10.688L24.943 10.688L15.979 36ZM51.100 23.889L51.100 24.223Q51.064 25.699 50.792 27.281Q50.520 28.863 50.027 30.445Q49.535 32.027 48.850 33.574Q48.164 35.121 47.312 36.536Q46.459 37.951 45.475 39.190Q44.490 40.430 43.400 41.379L40.781 39.867Q41.396 38.830 41.897 37.608Q42.398 36.387 42.803 35.051Q43.207 33.715 43.497 32.309Q43.787 30.902 43.980 29.514Q44.174 28.125 44.271 26.780Q44.367 25.436 44.367 24.223Q44.367 23.273 44.358 22.069Q44.350 20.865 44.218 19.617Q44.086 18.369 43.787 17.183Q43.488 15.996 42.899 15.064Q42.311 14.133 41.388 13.570Q40.465 13.008 39.094 13.008Q37.881 13.008 37.011 13.421Q36.141 13.834 35.534 14.528Q34.928 15.223 34.567 16.137Q34.207 17.051 34.005 18.062Q33.803 19.072 33.741 20.101Q33.680 21.129 33.680 22.043L33.680 26.947L41.256 26.947L41.256 29.848L33.680 29.848L33.680 36L26.701 36L26.701 23.133Q26.701 20.373 27.580 18Q28.459 15.627 30.067 13.878Q31.676 12.129 33.935 11.136Q36.193 10.143 38.971 10.143Q40.852 10.143 42.495 10.679Q44.139 11.215 45.492 12.155Q46.846 13.096 47.909 14.388Q48.973 15.680 49.685 17.209Q50.396 18.738 50.766 20.443Q51.135 22.148 51.100 23.889ZM73.811 36L55.635 36L55.635 10.688L62.613 10.688L62.613 32.783L73.811 32.783L73.811 36ZM95.273 36L77.098 36L77.098 10.688L95.273 10.688L95.273 13.922L84.076 13.922L84.076 21.744L92.725 21.744L92.725 24.961L84.076 24.961L84.076 32.766L95.273 32.766L95.273 36ZM106.576 36L99.598 36L99.598 10.688L112.043 10.688Q113.801 10.688 115.436 11.101Q117.070 11.514 118.327 12.401Q119.584 13.289 120.331 14.695Q121.078 16.102 121.078 18.105Q121.078 19.670 120.419 21.050Q119.760 22.430 118.661 23.511Q117.563 24.592 116.139 25.304Q114.715 26.016 113.186 26.244Q113.871 27.404 114.618 28.441Q115.365 29.479 116.130 30.384Q116.895 31.289 117.650 32.054Q118.406 32.818 119.092 33.451Q120.709 34.928 122.291 36L113.590 36Q112.535 34.998 111.586 33.592Q110.777 32.396 109.960 30.630Q109.143 28.863 108.703 26.543L106.576 26.543L106.576 36M113.994 18.105Q113.994 15.557 112.755 14.361Q111.516 13.166 109.037 13.166L106.576 13.166L106.576 24.152L109.037 24.152Q110.355 24.152 111.296 23.651Q112.236 23.150 112.834 22.315Q113.432 21.480 113.713 20.391Q113.994 19.301 113.994 18.105ZM132.557 36L125.578 36L125.578 10.688L132.557 10.688L132.557 36ZM162.387 23.889L162.387 24.223Q162.352 25.699 162.079 27.281Q161.807 28.863 161.314 30.445Q160.822 32.027 160.137 33.574Q159.451 35.121 158.599 36.536Q157.746 37.951 156.762 39.190Q155.777 40.430 154.688 41.379L152.068 39.867Q152.684 38.830 153.185 37.608Q153.686 36.387 154.090 35.051Q154.494 33.715 154.784 32.309Q155.074 30.902 155.268 29.514Q155.461 28.125 155.558 26.780Q155.654 25.436 155.654 24.223Q155.654 23.273 155.646 22.069Q155.637 20.865 155.505 19.617Q155.373 18.369 155.074 17.183Q154.775 15.996 154.187 15.064Q153.598 14.133 152.675 13.570Q151.752 13.008 150.381 13.008Q149.168 13.008 148.298 13.421Q147.428 13.834 146.821 14.528Q146.215 15.223 145.854 16.137Q145.494 17.051 145.292 18.062Q145.090 19.072 145.028 20.101Q144.967 21.129 144.967 22.043L144.967 26.947L152.543 26.947L152.543 29.848L144.967 29.848L144.967 36L137.988 36L137.988 23.133Q137.988 20.373 138.867 18Q139.746 15.627 141.354 13.878Q142.963 12.129 145.222 11.136Q147.480 10.143 150.258 10.143Q152.139 10.143 153.782 10.679Q155.426 11.215 156.779 12.155Q158.133 13.096 159.196 14.388Q160.260 15.680 160.972 17.209Q161.684 18.738 162.053 20.443Q162.422 22.148 162.387 23.889ZM191.021 23.889L191.021 24.223Q190.986 25.699 190.714 27.281Q190.441 28.863 189.949 30.445Q189.457 32.027 188.771 33.574Q188.086 35.121 187.233 36.536Q186.381 37.951 185.396 39.190Q184.412 40.430 183.322 41.379L180.703 39.867Q181.318 38.830 181.819 37.608Q182.320 36.387 182.725 35.051Q183.129 33.715 183.419 32.309Q183.709 30.902 183.902 29.514Q184.096 28.125 184.192 26.780Q184.289 25.436 184.289 24.223Q184.289 23.273 184.280 22.069Q184.271 20.865 184.140 19.617Q184.008 18.369 183.709 17.183Q183.410 15.996 182.821 15.064Q182.232 14.133 181.310 13.570Q180.387 13.008 179.016 13.008Q177.803 13.008 176.933 13.421Q176.063 13.834 175.456 14.528Q174.850 15.223 174.489 16.137Q174.129 17.051 173.927 18.062Q173.725 19.072 173.663 20.101Q173.602 21.129 173.602 22.043L173.602 26.947L181.178 26.947L181.178 29.848L173.602 29.848L173.602 36L166.623 36L166.623 23.133Q166.623 20.373 167.502 18Q168.381 15.627 169.989 13.878Q171.598 12.129 173.856 11.136Q176.115 10.143 178.893 10.143Q180.773 10.143 182.417 10.679Q184.061 11.215 185.414 12.155Q186.768 13.096 187.831 14.388Q188.895 15.680 189.606 17.209Q190.318 18.738 190.688 20.443Q191.057 22.148 191.021 23.889Z" stroke-width="1" stroke="#000000" fill="none"/></g></g></g></svg>